<?xml version="1.0" standalone="no"?>
<!DOCTYPE svg PUBLIC "-//W3C//DTD SVG 20010904//EN"
 "http://www.w3.org/TR/2001/REC-SVG-20010904/DTD/svg10.dtd">
<svg version="1.0" xmlns="http://www.w3.org/2000/svg"
 width="500.000000pt" height="500.000000pt" viewBox="0 0 500.000000 500.000000"
 preserveAspectRatio="xMidYMid meet">

<g transform="translate(0.000000,500.000000) scale(0.100000,-0.100000)"
fill="#000000" stroke="none">
<path d="M2719 3483 c-23 -21 -75 -78 -115 -128 -40 -49 -93 -112 -119 -140
-59 -65 -100 -123 -108 -156 -10 -41 17 -77 197 -264 l169 -175 251 0 c145 0
267 -5 289 -11 80 -22 100 -120 38 -183 l-31 -31 -298 -5 c-163 -3 -303 -9
-309 -13 -7 -5 -40 -43 -73 -85 -33 -42 -90 -113 -127 -157 l-67 -80 449 -3
c499 -2 503 -2 614 63 100 59 153 118 190 213 56 145 52 261 -13 403 -35 74
-125 160 -213 202 l-68 32 -282 5 -282 5 -30 29 c-49 47 -39 119 21 156 32 19
51 20 483 20 510 0 477 -5 551 86 22 26 76 90 121 143 46 53 83 99 83 104 0 4
-288 7 -640 7 l-640 0 -41 -37z"/>
<path d="M1478 3451 c-13 -10 -31 -21 -41 -24 -10 -4 -15 -12 -12 -17 4 -6 3
-10 -2 -9 -23 4 -34 -6 -72 -65 -67 -102 -84 -163 -79 -281 4 -81 10 -112 31
-158 29 -63 67 -117 112 -159 45 -41 203 -114 168 -77 -7 7 -13 25 -13 40 0
15 6 30 13 33 10 5 10 7 0 12 -18 8 -16 25 1 18 12 -5 15 11 18 79 2 47 0 83
-3 81 -24 -15 -43 243 -27 372 9 78 9 95 -4 113 -9 12 -14 30 -11 40 6 25 -48
26 -79 2z m37 -41 c3 -6 -1 -7 -9 -4 -18 7 -21 14 -7 14 6 0 13 -4 16 -10z"/>
<path d="M1606 3148 c3 -5 10 -6 15 -3 13 9 11 12 -6 12 -8 0 -12 -4 -9 -9z"/>
<path d="M1581 2704 c0 -11 3 -14 6 -6 3 7 2 16 -1 19 -3 4 -6 -2 -5 -13z"/>
<path d="M1217 2383 c-17 -4 -277 -309 -277 -325 0 -4 124 -8 275 -8 236 0
276 2 281 15 4 8 16 15 28 15 17 0 18 2 6 10 -13 9 -13 10 0 10 12 0 15 17 13
100 -1 55 2 100 7 100 15 0 -11 59 -33 75 -17 12 -51 15 -152 14 -71 -1 -138
-3 -148 -6z m313 -33 c0 -5 -5 -10 -11 -10 -5 0 -7 5 -4 10 3 6 8 10 11 10 2
0 4 -4 4 -10z"/>
<path d="M567 1682 c-18 -19 -22 -59 -9 -78 10 -16 48 -34 71 -34 20 0 51 -24
51 -40 0 -5 -8 -16 -17 -25 -16 -17 -63 -17 -105 0 -13 5 -18 2 -18 -8 0 -20
21 -27 79 -27 58 0 91 21 91 59 0 34 -23 56 -68 66 -32 7 -62 28 -62 45 0 5 7
16 17 25 12 13 26 15 61 10 34 -5 43 -4 40 7 -3 8 -25 14 -59 16 -44 2 -59 -1
-72 -16z"/>
<path d="M787 1693 c-3 -5 -5 -56 -6 -115 l-2 -108 86 0 c69 0 85 3 85 15 0
12 -14 15 -65 15 l-65 0 0 35 0 35 55 0 c42 0 55 3 55 15 0 12 -13 15 -55 15
l-55 0 0 35 0 35 65 0 c51 0 65 3 65 15 0 12 -15 15 -79 15 -44 0 -82 -3 -84
-7z"/>
<path d="M1030 1586 c0 -96 3 -116 15 -116 11 0 15 11 15 41 0 39 1 40 33 37
25 -2 36 -11 52 -40 14 -27 27 -38 43 -38 24 0 24 0 -7 42 l-31 42 25 13 c21
11 25 21 25 57 0 57 -17 70 -101 74 l-69 4 0 -116z m128 72 c34 -34 -2 -88
-60 -88 l-38 0 0 50 0 50 43 0 c24 0 48 -5 55 -12z"/>
<path d="M1290 1585 c0 -96 3 -115 15 -115 12 0 15 19 15 115 0 96 -3 115 -15
115 -12 0 -15 -19 -15 -115z"/>
<path d="M1410 1585 l0 -115 80 0 c64 0 80 3 80 15 0 12 -14 15 -65 15 l-65 0
0 35 0 35 60 0 c47 0 60 3 60 15 0 12 -13 15 -60 15 l-60 0 0 35 0 35 65 0
c51 0 65 3 65 15 0 12 -16 15 -80 15 l-80 0 0 -115z"/>
<path d="M1667 1682 c-39 -43 -8 -112 49 -112 37 0 54 -11 54 -35 0 -43 -47
-56 -112 -30 -12 5 -18 2 -18 -8 0 -20 21 -27 80 -27 50 0 73 14 85 50 10 31
-10 54 -67 75 -39 16 -54 27 -56 43 -4 29 39 47 80 33 25 -9 29 -8 26 7 -5 26
-98 30 -121 4z"/>
<path d="M1900 1680 c-42 -42 -18 -89 56 -109 48 -13 59 -30 38 -60 -16 -23
-53 -27 -85 -11 -25 14 -44 3 -28 -16 19 -23 114 -19 139 6 43 43 20 83 -62
109 -20 7 -39 18 -42 26 -14 39 28 64 76 46 20 -7 28 -7 32 4 12 31 -93 36
-124 5z"/>
<path d="M2090 1685 c0 -11 11 -15 40 -15 l40 0 0 -100 c0 -82 3 -100 15 -100
12 0 15 18 15 100 l0 100 40 0 c29 0 40 4 40 15 0 12 -17 15 -95 15 -78 0 -95
-3 -95 -15z"/>
<path d="M2340 1585 c0 -96 3 -115 15 -115 11 0 15 11 15 40 0 37 2 40 29 40
22 0 34 -9 55 -40 14 -22 33 -40 41 -40 20 0 19 5 -10 48 l-25 36 25 14 c21
10 25 20 25 57 0 59 -23 75 -107 75 l-63 0 0 -115z m128 73 c35 -35 -5 -88
-65 -88 -33 0 -33 0 -33 50 l0 50 43 0 c24 0 48 -5 55 -12z"/>
<path d="M2600 1585 l0 -115 80 0 c64 0 80 3 80 15 0 12 -14 15 -70 15 l-70 0
0 35 0 35 60 0 c47 0 60 3 60 15 0 12 -13 15 -60 15 l-60 0 0 35 0 35 70 0
c56 0 70 3 70 15 0 12 -16 15 -80 15 l-80 0 0 -115z"/>
<path d="M2868 1597 c-27 -57 -48 -108 -48 -115 0 -24 26 -11 37 18 11 29 14
30 73 30 59 0 62 -1 73 -30 14 -36 42 -42 32 -7 -20 66 -92 207 -105 207 -9
-1 -34 -41 -62 -103z m86 13 c9 -22 16 -43 16 -45 0 -3 -18 -5 -40 -5 -22 0
-40 2 -40 5 0 14 33 85 40 85 4 0 15 -18 24 -40z"/>
<path d="M3110 1585 c0 -94 3 -115 15 -115 11 0 15 18 17 77 l3 78 34 -53 c18
-28 39 -52 46 -52 7 0 28 24 46 52 l34 53 3 -78 c2 -58 6 -77 17 -77 11 0 14
25 17 115 2 88 0 115 -10 115 -7 0 -33 -32 -58 -71 -33 -50 -49 -67 -57 -60
-7 5 -28 37 -47 70 -52 90 -60 82 -60 -54z"/>
<path d="M3530 1585 l0 -115 63 0 c40 0 70 5 85 16 29 20 30 68 2 87 -18 13
-19 16 -5 27 8 7 15 25 15 41 0 40 -32 59 -102 59 l-58 0 0 -115z m125 74 c4
-5 4 -21 1 -35 -6 -21 -12 -24 -51 -24 -45 0 -45 0 -45 35 0 35 0 35 44 35 25
0 48 -5 51 -11z m13 -114 c4 -34 -13 -48 -60 -49 -43 -1 -43 -1 -46 37 l-3 38
53 -3 c44 -2 53 -6 56 -23z"/>
<path d="M3780 1610 c0 -83 2 -93 25 -115 35 -36 102 -35 136 1 21 22 24 37
27 115 3 74 1 89 -11 89 -12 0 -16 -18 -18 -86 -4 -76 -7 -88 -28 -105 -30
-24 -56 -24 -81 1 -17 17 -20 33 -20 105 0 69 -3 85 -15 85 -12 0 -15 -17 -15
-90z"/>
<path d="M4040 1690 c0 -5 15 -11 33 -11 51 -2 77 -6 83 -12 3 -2 -14 -29 -38
-58 -44 -54 -88 -121 -88 -133 0 -3 41 -6 90 -6 73 0 90 3 90 15 0 12 -14 15
-65 15 -36 0 -65 2 -65 5 0 3 29 44 65 90 36 47 65 90 65 95 0 6 -37 10 -85
10 -50 0 -85 -4 -85 -10z"/>
<path d="M4280 1690 c0 -9 35 -13 103 -13 9 0 17 -3 17 -7 0 -5 -29 -45 -65
-90 -36 -45 -65 -88 -65 -96 0 -11 20 -14 95 -14 79 0 95 3 95 16 0 12 -12 15
-70 12 -38 -1 -70 1 -70 5 0 4 29 45 65 91 36 46 65 89 65 95 0 7 -30 11 -85
11 -50 0 -85 -4 -85 -10z"/>
<path d="M3420 1485 c0 -8 7 -15 15 -15 8 0 15 7 15 15 0 8 -7 15 -15 15 -8 0
-15 -7 -15 -15z"/>
</g>
</svg>
